<svg xmlns="http://www.w3.org/2000/svg" width="23" height="48">
  <path fill="#439417" fill-rule="nonzero" d="M13.088 22.48c-5.662-1.858-7.251-5.135-6.892-7.379.324-2.032 2.354-4.085 6.152-4.085 4.89 0 5.923 4.635 6.026 5.181.231 1.29 1.52 2.121 2.743 1.917 1.293-.227 2.031-1.458 1.805-2.748-.49-2.795-2.7-7.798-8.558-8.884V2.373c0-1.311-.885-2.373-2.197-2.373S9.971 1.062 9.971 2.373v4.124c-4.394.822-7.764 3.824-8.408 7.856-.653 4.086 1.572 9.846 10.072 12.636 4.47 1.467 6.89 3.817 6.496 6.292-.338 2.127-2.908 4.333-6.611 4.333-6.345 0-6.8-3.453-6.825-4.102A2.372 2.372 0 0 0 2.32 31.14C1.01 31.14 0 32.2 0 33.512c0 2.867 1.916 8.13 9.97 8.781v3.334c0 1.312.885 2.373 2.197 2.373s2.197-1.061 2.197-2.373v-3.632c4.393-1.025 7.704-4.111 8.317-7.969.301-1.862.6-8.205-9.593-11.546z"/>
</svg>
