<svg xmlns="http://www.w3.org/2000/svg" width="28" height="48">
  <path fill="#439417" fill-rule="nonzero" d="M13.608.004c9.157-.24 16.712 9.465 12.323 19.443-1.333 3.034-3.209 5.837-4.902 8.692a43.789 43.789 0 0 0-6.236 18.58c-.067.739-.326 1.281-1.185 1.281-.993 0-1.165-.734-1.233-1.497a41.55 41.55 0 0 0-2.125-9.81c-1.333-3.802-3.314-7.267-5.406-10.675-1.626-2.645-3.386-5.222-4.254-8.255C-1.626 9.949 2.576 2.404 10.313.436a27.05 27.05 0 0 1 3.295-.432zm.09 19.477c2.61.256 5.758-2.119 5.802-5.621a5.803 5.803 0 0 0-11.565-.295c-.145 2.83 2.291 6.095 5.763 5.92v-.004z"/>
</svg>
