<?xml version="1.0" encoding="UTF-8"?>
<svg width="28px" height="48px" viewBox="0 0 28 48" version="1.1" xmlns="http://www.w3.org/2000/svg" xmlns:xlink="http://www.w3.org/1999/xlink">
    <!-- Generator: Sketch 55.2 (78181) - https://sketchapp.com -->
    <title>Shape</title>
    <desc>Created with Sketch.</desc>
    <g id="final" stroke="none" stroke-width="1" fill="none" fill-rule="evenodd">
        <g id="mobile_V1" transform="translate(-299.000000, -2773.000000)" fill="#439417" fill-rule="nonzero">
            <g id="locations" transform="translate(16.000000, 2641.000000)">
                <path d="M296.608278,132.00436 C305.765427,131.764382 313.320435,141.469101 308.931335,151.447394 C307.597816,154.480718 305.722256,157.283664 304.028975,160.139404 C300.573586,165.781236 298.441522,172.133484 297.793095,178.718516 C297.72594,179.457649 297.466911,180 296.608278,180 C295.615335,180 295.442649,179.265667 295.375493,178.502536 C295.066191,175.158494 294.352648,171.864335 293.250497,168.692227 C291.916978,164.890973 289.935888,161.425687 287.84447,158.017997 C286.218344,155.373437 284.457908,152.796071 283.589681,149.762747 C281.373546,141.949057 285.575569,134.404142 293.312856,132.436321 C294.401448,132.224919 295.501997,132.08066 296.608278,132.00436 Z M296.698019,151.481088 C299.30891,151.737477 302.456485,149.362252 302.5,145.859883 C302.342205,142.832503 299.88272,140.436343 296.853805,140.35906 C293.824889,140.281777 291.246533,142.549396 290.934718,145.564793 C290.789668,148.394746 293.2265,151.660077 296.698019,151.485926 L296.698019,151.481088 Z" id="Shape"></path>
            </g>
        </g>
    </g>
</svg>