<?xml version="1.0" encoding="UTF-8"?>
<svg width="140px" height="28px" viewBox="0 0 140 28" version="1.1" xmlns="http://www.w3.org/2000/svg" xmlns:xlink="http://www.w3.org/1999/xlink">
    <!-- Generator: Sketch 55.2 (78181) - https://sketchapp.com -->
    <title>broomers</title>
    <desc>Created with Sketch.</desc>
    <g id="final" stroke="none" stroke-width="1" fill="none" fill-rule="evenodd">
        <g id="mobile_V1" transform="translate(-27.000000, -5.000000)" fill="#439417">
            <g id="hero" transform="translate(-533.000000, 0.000000)">
                <g id="Group-7" transform="translate(549.000000, 0.000000)">
                    <path d="M20.5352241,13.0022871 C25.6456026,13.0022871 29.8234303,17.2007222 29.8234303,22.3280146 C29.8234303,27.4181527 25.6456026,31.5794335 20.5352241,31.5794335 C15.3875435,31.5794335 11.1724138,27.4181527 11.1724138,22.3280146 L11.1724138,7.05760028 C11.1724138,6.24020584 11.8438504,5.57142857 12.6644951,5.57142857 C13.4851398,5.57142857 14.1565764,6.24020584 14.1565764,7.05760028 L14.1565764,15.528779 C15.8351679,13.9682987 18.0359879,13.0022871 20.5352241,13.0022871 Z M20.289147,28.8417488 C23.8003032,28.8417488 26.6391104,25.9943426 26.6391104,22.4725507 C26.6391104,18.9132929 23.8003032,16.0658867 20.289147,16.0658867 C16.740638,16.0658867 13.9018308,18.9132929 13.9018308,22.4725507 C13.9018308,25.9943426 16.740638,28.8417488 20.289147,28.8417488 Z M40.5999218,13.328202 C41.4281587,13.328202 42.105807,14.0016724 42.105807,14.7873879 C42.105807,15.6105185 41.4281587,16.2839889 40.5999218,16.2839889 C37.0610914,16.2839889 34.1622622,19.1649458 34.1622622,22.6819581 L34.1622622,30.5391133 C34.1622622,31.3622438 33.4846139,32.0357143 32.6940241,32.0357143 C31.8657872,32.0357143 31.1881388,31.3622438 31.1881388,30.5391133 L31.1881388,14.7873879 C31.1881388,14.0016724 31.8657872,13.328202 32.6940241,13.328202 C33.4846139,13.328202 34.1622622,14.0016724 34.1622622,14.7873879 L34.1622622,15.8724236 C35.8563832,14.3009926 38.0775639,13.328202 40.5999218,13.328202 Z M52.7960238,32.0357143 C47.6483433,32.0357143 43.4705156,27.8452315 43.4705156,22.6819581 C43.4705156,17.5186847 47.6483433,13.328202 52.7960238,13.328202 C57.9437044,13.328202 62.1215321,17.5186847 62.1215321,22.6819581 C62.1215321,27.8452315 57.9437044,32.0357143 52.7960238,32.0357143 Z M53.0234752,28.8417488 C56.5243649,28.8417488 59.392115,25.965312 59.392115,22.4538177 C59.392115,18.9423235 56.5243649,16.0658867 53.0234752,16.0658867 C49.5225855,16.0658867 46.6548354,18.9423235 46.6548354,22.4538177 C46.6548354,25.965312 49.5225855,28.8417488 53.0234752,28.8417488 Z M73.2666517,32.0357143 C68.1189711,32.0357143 63.9411434,27.8452315 63.9411434,22.6819581 C63.9411434,17.5186847 68.1189711,13.328202 73.2666517,13.328202 C78.4143322,13.328202 82.5921599,17.5186847 82.5921599,22.6819581 C82.5921599,27.8452315 78.4143322,32.0357143 73.2666517,32.0357143 Z M73.0392003,28.8417488 C76.54009,28.8417488 79.4078401,25.965312 79.4078401,22.4538177 C79.4078401,18.9423235 76.54009,16.0658867 73.0392003,16.0658867 C69.5383106,16.0658867 66.6705605,18.9423235 66.6705605,22.4538177 C66.6705605,25.965312 69.5383106,28.8417488 73.0392003,28.8417488 Z M97.664789,13.328202 C100.56854,13.328202 102.951105,15.6479335 103.062788,18.5288904 L103.062788,30.5391133 C103.062788,31.3622438 102.392691,32.0357143 101.573685,32.0357143 C100.754678,32.0357143 100.084582,31.3622438 100.084582,30.5391133 L100.084582,18.7533805 C100.084582,17.3690246 99.0049818,16.2839889 97.664789,16.2839889 C96.3245962,16.2839889 95.2077689,17.3690246 95.2077689,18.7533805 L95.2077689,30.5391133 C95.2077689,31.3622438 94.5376725,32.0357143 93.7186658,32.0357143 C92.9368866,32.0357143 92.2667902,31.3622438 92.2667902,30.5391133 L92.2667902,18.7533805 C92.2667902,17.3690246 91.1499629,16.2839889 89.8097701,16.2839889 C88.4695773,16.2839889 87.3899775,17.3690246 87.3899775,18.7533805 L87.3899775,30.5391133 C87.3899775,31.3622438 86.7198811,32.0357143 85.9008744,32.0357143 C85.0818677,32.0357143 84.4117713,31.3622438 84.4117713,30.5391133 L84.4117713,14.7873879 C84.4117713,14.0016724 85.0818677,13.328202 85.9008744,13.328202 C86.4220605,13.328202 86.906019,13.6275222 87.1666121,14.0390874 C87.9483912,13.5901071 88.8418531,13.328202 89.8097701,13.328202 C91.3361008,13.328202 92.7135212,13.9642574 93.6814382,15.0118781 C94.6121276,14.0765025 96.0640032,13.328202 97.664789,13.328202 Z M113.329826,12.8719212 C118.535516,12.8719212 122.804931,17.2214172 122.617676,22.4333134 C122.580225,23.1082352 122.01846,23.5956787 121.381793,23.5956787 L107.187861,23.5956787 C107.824528,26.3703572 110.531013,28.6287249 113.564545,28.6287249 C118.245921,28.6287249 118.536565,27.173297 119.727024,26.5278177 C120.917483,25.8823384 121.303244,26.0061598 121.824281,26.5278177 C122.345317,27.0494757 122.423497,28.0651396 121.824281,28.6275745 C118.303886,32.1146704 109.846883,33.1945665 105.989429,28.0576617 C100.858641,21.1959567 106.326488,12.8719212 113.329826,12.8719212 Z M113.298102,16.0658867 C110.283337,16.0658867 107.789642,18.2279557 107.156913,21.0849754 L119.43929,21.0849754 C118.769342,18.2279557 116.312867,16.0658867 113.298102,16.0658867 Z M133.400101,13.328202 C134.228338,13.328202 134.905987,14.0016724 134.905987,14.7873879 C134.905987,15.6105185 134.228338,16.2839889 133.400101,16.2839889 C129.861271,16.2839889 126.962442,19.1649458 126.962442,22.6819581 L126.962442,30.5391133 C126.962442,31.3622438 126.284794,32.0357143 125.494204,32.0357143 C124.665967,32.0357143 123.988319,31.3622438 123.988319,30.5391133 L123.988319,14.7873879 C123.988319,14.0016724 124.665967,13.328202 125.494204,13.328202 C126.284794,13.328202 126.962442,14.0016724 126.962442,14.7873879 L126.962442,15.8724236 C128.656563,14.3009926 130.877744,13.328202 133.400101,13.328202 Z M143.776592,32.0357143 C141.768662,32.0357143 139.872284,31.3996589 138.236193,30.2023781 C137.604067,29.7159828 137.455332,28.7806071 137.938722,28.1071367 C138.422113,27.4710813 139.35171,27.3214212 139.983836,27.8078165 C141.099352,28.630947 142.400788,29.0425123 143.776592,29.0425123 C145.263948,29.0425123 147.048774,28.556117 147.6809,27.4710813 C147.792452,27.3214212 148.089923,26.7227808 147.606532,26.2363855 C146.825671,25.45067 139.202974,22.5697131 137.864355,21.2227722 C136.562919,19.9132463 136.376999,17.967665 137.306596,16.358819 C138.645216,14.1139175 141.508375,13.328202 143.776592,13.328202 C145.784522,13.328202 147.6809,13.9642574 149.316991,15.1615382 C149.949117,15.6479335 150.097852,16.5833091 149.614462,17.2193645 C149.131071,17.892835 148.201474,18.0424951 147.532164,17.5186847 C146.453832,16.7329692 145.152396,16.2839889 143.776592,16.2839889 C142.289237,16.2839889 140.50441,16.7703842 139.8351,17.85542 C139.438472,18.6286638 140.777092,19.8134729 143.85096,21.4098473 C147.271877,22.8565616 149.217834,23.8168805 149.68883,24.2908042 C150.990266,25.562915 151.176185,27.3962512 150.246588,29.0050973 C148.907968,31.2499988 146.044809,32.0357143 143.776592,32.0357143 Z" id="broomers"></path>
                </g>
            </g>
        </g>
    </g>
</svg>