<svg xmlns="http://www.w3.org/2000/svg" width="140" height="28">
  <path fill="#439417" fill-rule="evenodd" d="M9.535 8.002c5.11 0 9.288 4.199 9.288 9.326 0 5.09-4.177 9.251-9.288 9.251-5.147 0-9.363-4.16-9.363-9.251V2.058C.172 1.24.844.57 1.664.57c.821 0 1.493.67 1.493 1.487v8.47c1.678-1.56 3.879-2.526 6.378-2.526zm-.246 15.84c3.511 0 6.35-2.848 6.35-6.37 0-3.559-2.839-6.406-6.35-6.406a6.37 6.37 0 0 0-6.387 6.407 6.362 6.362 0 0 0 6.387 6.369zM29.6 8.328c.83 0 1.507.674 1.507 1.46 0 .823-.678 1.496-1.506 1.496-3.539 0-6.438 2.88-6.438 6.398v7.857c0 .823-.677 1.497-1.468 1.497a1.506 1.506 0 0 1-1.506-1.497V9.787c0-.785.678-1.459 1.506-1.459.79 0 1.468.674 1.468 1.46v1.084c1.694-1.571 3.916-2.544 6.438-2.544zm12.197 18.708c-5.148 0-9.325-4.19-9.325-9.354 0-5.163 4.177-9.354 9.325-9.354s9.326 4.19 9.326 9.354c0 5.163-4.178 9.354-9.326 9.354zm.227-3.194c3.501 0 6.37-2.877 6.37-6.388 0-3.512-2.869-6.388-6.37-6.388-3.5 0-6.368 2.876-6.368 6.388 0 3.511 2.868 6.388 6.368 6.388zm20.244 3.194c-5.148 0-9.326-4.19-9.326-9.354 0-5.163 4.178-9.354 9.326-9.354 5.147 0 9.325 4.19 9.325 9.354 0 5.163-4.178 9.354-9.325 9.354zm-.228-3.194c3.501 0 6.369-2.877 6.369-6.388 0-3.512-2.868-6.388-6.369-6.388-3.5 0-6.368 2.876-6.368 6.388 0 3.511 2.867 6.388 6.368 6.388zM86.665 8.328c2.904 0 5.286 2.32 5.398 5.2V25.54c0 .823-.67 1.497-1.49 1.497-.818 0-1.488-.674-1.488-1.497V13.753c0-1.384-1.08-2.469-2.42-2.469a2.46 2.46 0 0 0-2.457 2.47v11.785c0 .823-.67 1.497-1.49 1.497-.781 0-1.451-.674-1.451-1.497V13.753a2.46 2.46 0 0 0-2.457-2.469c-1.34 0-2.42 1.085-2.42 2.47v11.785c0 .823-.67 1.497-1.49 1.497-.818 0-1.488-.674-1.488-1.497V9.787c0-.785.67-1.459 1.489-1.459.521 0 1.005.3 1.266.711a5.27 5.27 0 0 1 2.643-.71c1.526 0 2.904.635 3.871 1.683.931-.935 2.383-1.684 3.984-1.684zm15.665-.456c5.206 0 9.475 4.35 9.288 9.561a1.233 1.233 0 0 1-1.236 1.163H96.188c.637 2.774 3.343 5.033 6.377 5.033 4.68 0 4.972-1.456 6.162-2.101 1.19-.646 1.576-.522 2.097 0 .521.521.6 1.537 0 2.1-3.52 3.487-11.977 4.567-15.835-.57-5.13-6.862.337-15.186 7.34-15.186zm-.032 3.194c-3.015 0-5.508 2.162-6.141 5.019h12.282c-.67-2.857-3.126-5.02-6.14-5.02zM122.4 8.328c.828 0 1.506.674 1.506 1.46 0 .823-.678 1.496-1.506 1.496-3.539 0-6.438 2.88-6.438 6.398v7.857c0 .823-.677 1.497-1.468 1.497a1.506 1.506 0 0 1-1.506-1.497V9.787c0-.785.678-1.459 1.506-1.459.79 0 1.468.674 1.468 1.46v1.084c1.695-1.571 3.916-2.544 6.438-2.544zm10.377 18.708c-2.008 0-3.905-.636-5.54-1.834a1.532 1.532 0 0 1-.298-2.095c.483-.636 1.413-.786 2.045-.3a6.305 6.305 0 0 0 3.793 1.236c1.487 0 3.272-.487 3.904-1.572.111-.15.409-.748-.074-1.235-.781-.785-8.404-3.666-9.743-5.013-1.301-1.31-1.487-3.255-.557-4.864 1.338-2.245 4.201-3.03 6.47-3.03 2.008 0 3.904.635 5.54 1.833.632.486.78 1.421.297 2.057a1.445 1.445 0 0 1-2.082.3 6.364 6.364 0 0 0-3.755-1.235c-1.488 0-3.273.486-3.942 1.571-.397.774.942 1.958 4.016 3.555 3.42 1.447 5.367 2.407 5.838 2.88 1.301 1.273 1.487 3.106.558 4.715-1.339 2.245-4.202 3.03-6.47 3.03z"/>
</svg>
