<svg xmlns="http://www.w3.org/2000/svg" width="117" height="175">
  <path fill="#439417" fill-opacity=".15" fill-rule="nonzero" d="M14.31 138.24c4.5 3.6 9.81 6.975 15.93 10.125 6.12 3.15 13.86 4.725 23.22 4.725 11.34 0 20.34-3.06 27-9.18 6.66-6.12 9.99-14.31 9.99-24.57 0-9.18-2.835-16.74-8.505-22.68-5.67-5.94-13.995-8.91-24.975-8.91-3.24 0-6.21.27-8.91.81s-5.31 1.26-7.83 2.16L32.4 78.03l47.79-55.62H12.15V0h97.74v19.44L66.15 70.47c7.56 0 14.4 1.17 20.52 3.51 6.12 2.34 11.385 5.67 15.795 9.99s7.785 9.495 10.125 15.525c2.34 6.03 3.51 12.735 3.51 20.115 0 9-1.62 16.92-4.86 23.76s-7.695 12.555-13.365 17.145-12.33 8.1-19.98 10.53c-7.65 2.43-15.885 3.645-24.705 3.645-6.48 0-12.42-.54-17.82-1.62s-10.26-2.52-14.58-4.32c-4.32-1.8-8.19-3.825-11.61-6.075S2.7 158.13 0 155.79l14.31-17.55z"/>
</svg>
