<svg xmlns="http://www.w3.org/2000/svg" width="111" height="175">
  <path fill="#439417" fill-opacity=".15" fill-rule="nonzero" d="M2.7 157.41c0-9.54 2.25-17.91 6.75-25.11 4.5-7.2 9.9-13.95 16.2-20.25 7.74-7.74 15.075-14.4 22.005-19.98S60.66 81.36 65.88 76.68c5.22-4.68 9.315-9.315 12.285-13.905 2.97-4.59 4.455-9.855 4.455-15.795 0-2.7-.495-5.49-1.485-8.37-.99-2.88-2.655-5.535-4.995-7.965-2.34-2.43-5.31-4.455-8.91-6.075-3.6-1.62-8.1-2.43-13.5-2.43-4.86 0-9.18.675-12.96 2.025-3.78 1.35-7.11 3.015-9.99 4.995s-5.31 4.23-7.29 6.75c-1.98 2.52-3.78 4.86-5.4 7.02L0 29.97c1.8-3.24 4.275-6.615 7.425-10.125 3.15-3.51 6.93-6.75 11.34-9.72 4.41-2.97 9.63-5.4 15.66-7.29C40.455.945 47.43 0 55.35 0c9.18 0 17.145 1.26 23.895 3.78C85.995 6.3 91.53 9.675 95.85 13.905s7.56 9.045 9.72 14.445c2.16 5.4 3.24 11.07 3.24 17.01 0 6.3-1.08 12.195-3.24 17.685A62.322 62.322 0 0 1 96.93 78.3c-3.6 4.68-7.695 9.135-12.285 13.365A222.35 222.35 0 0 1 70.47 103.68c-5.76 4.5-11.115 8.82-16.065 12.96-4.95 4.14-9.27 8.19-12.96 12.15-3.69 3.96-6.57 7.92-8.64 11.88-2.07 3.96-3.105 8.01-3.105 12.15h81v22.14H2.7v-17.55z"/>
</svg>
