<svg xmlns="http://www.w3.org/2000/svg" width="84" height="48">
  <g fill="#439417" fill-rule="nonzero">
    <path d="M6.824 10.457c-1.916 0-3.711-.343-5.507-1.2C.359 8.914-.24 7.371.12 6c.359-1.371 1.317-2.229 2.274-1.714 2.634 1.028 5.388 1.2 8.141.343l9.697-3.258C22.866.514 25.5.514 28.254 1.2l9.218 2.4c1.915.514 3.95.514 5.986 0l9.098-2.571c2.395-.686 4.909-.686 7.423 0l12.93 3.6c2.873.857 5.866.514 8.62-1.029.957-.514 1.915.171 2.274 1.543.359 1.371-.12 2.743-1.078 3.257-3.352 1.714-7.063 2.229-10.535 1.2L59.26 6c-2.035-.514-4.07-.514-5.985 0l-9.099 2.571c-2.394.686-4.789.686-7.303 0l-9.218-2.4c-2.155-.514-4.31-.514-6.465.172L11.493 9.6c-1.676.686-3.232.857-4.67.857zM6.824 28.286c-1.916 0-3.711-.343-5.507-1.2C.359 26.743-.24 25.2.12 23.829c.24-1.372 1.317-2.229 2.274-1.715 2.634 1.029 5.388 1.2 8.141.343l9.697-3.257c2.634-.857 5.268-.857 8.022-.171l9.218 2.4c1.915.514 3.95.514 5.986 0l9.098-2.572c2.395-.686 4.909-.686 7.423 0l12.93 3.6c2.873.857 5.866.514 8.62-1.028.957-.515 1.915.171 2.274 1.542.359 1.372-.12 2.743-1.078 3.258-3.352 1.714-7.063 2.228-10.535 1.2l-12.93-3.6c-2.035-.515-4.07-.515-5.985 0L44.176 26.4c-2.394.686-4.789.686-7.303 0L27.655 24c-2.155-.514-4.31-.514-6.465.171l-9.697 3.258c-1.676.685-3.232.857-4.67.857zM6.824 47.143c-1.916 0-3.711-.343-5.507-1.2C.359 45.6-.24 44.057.12 42.686c.24-1.372 1.317-2.229 2.274-1.715 2.634 1.029 5.388 1.2 8.141.343l9.697-3.257c2.634-.857 5.268-.857 8.022-.171l9.218 2.4c1.915.514 3.95.514 5.986 0l9.098-2.572c2.395-.685 4.909-.685 7.423 0l12.93 3.6c2.873.857 5.866.515 8.62-1.028.957-.515 1.915.171 2.274 1.543.359 1.371-.12 2.742-1.078 3.257-3.352 1.885-7.063 2.228-10.535 1.2l-12.93-3.6c-2.035-.515-4.07-.515-5.985 0l-9.099 2.571a13.22 13.22 0 0 1-7.303 0l-9.218-2.4c-2.155-.514-4.31-.514-6.465.172l-9.697 3.257c-1.676.685-3.232.857-4.67.857z"/>
  </g>
</svg>
